<svg width="1440" height="932" viewBox="0 0 1440 932" fill="none" xmlns="http://www.w3.org/2000/svg">
<g clip-path="url(#clip0_9_13858)">
<rect width="1440" height="932" fill="#0A0A0A"/>
<mask id="mask0_9_13858" style="mask-type:alpha" maskUnits="userSpaceOnUse" x="-231" y="-263" width="2193" height="1551">
<g opacity="0.12">
<rect x="-11.2385" y="-40.9313" width="109.592" height="109.592" stroke="white" stroke-width="1.1536"/>
<rect x="98.3538" y="-40.9313" width="109.592" height="109.592" stroke="white" stroke-width="1.1536"/>
<rect x="207.946" y="-40.9313" width="109.592" height="109.592" stroke="white" stroke-width="1.1536"/>
<rect x="317.538" y="-40.9313" width="109.592" height="109.592" stroke="white" stroke-width="1.1536"/>
<rect x="427.131" y="-40.9313" width="109.592" height="109.592" stroke="white" stroke-width="1.1536"/>
<rect x="536.723" y="-40.9313" width="109.592" height="109.592" stroke="white" stroke-width="1.1536"/>
<rect x="646.316" y="-40.9313" width="109.592" height="109.592" stroke="white" stroke-width="1.1536"/>
<rect x="755.908" y="-40.9313" width="109.592" height="109.592" stroke="white" stroke-width="1.1536"/>
<rect x="865.5" y="-40.9313" width="109.592" height="109.592" stroke="white" stroke-width="1.1536"/>
<rect x="975.092" y="-40.9313" width="109.592" height="109.592" stroke="white" stroke-width="1.1536"/>
<rect x="1084.68" y="-40.9313" width="109.592" height="109.592" stroke="white" stroke-width="1.1536"/>
<rect x="1194.28" y="-40.9313" width="109.592" height="109.592" stroke="white" stroke-width="1.1536"/>
<rect x="1303.87" y="-40.9313" width="109.592" height="109.592" stroke="white" stroke-width="1.1536"/>
<rect x="1413.46" y="-40.9313" width="109.592" height="109.592" stroke="white" stroke-width="1.1536"/>
<rect x="-11.2385" y="69.8146" width="109.592" height="109.592" stroke="white" stroke-width="1.1536"/>
<rect x="98.3538" y="69.8146" width="109.592" height="109.592" stroke="white" stroke-width="1.1536"/>
<rect x="207.946" y="69.8146" width="109.592" height="109.592" stroke="white" stroke-width="1.1536"/>
<rect x="317.538" y="69.8146" width="109.592" height="109.592" stroke="white" stroke-width="1.1536"/>
<rect x="427.131" y="69.8146" width="109.592" height="109.592" stroke="white" stroke-width="1.1536"/>
<rect x="536.723" y="69.8146" width="109.592" height="109.592" stroke="white" stroke-width="1.1536"/>
<rect x="646.316" y="69.8146" width="109.592" height="109.592" stroke="white" stroke-width="1.1536"/>
<rect x="755.908" y="69.8146" width="109.592" height="109.592" stroke="white" stroke-width="1.1536"/>
<rect x="865.5" y="69.8146" width="109.592" height="109.592" stroke="white" stroke-width="1.1536"/>
<rect x="975.092" y="69.8146" width="109.592" height="109.592" stroke="white" stroke-width="1.1536"/>
<rect x="1084.68" y="69.8146" width="109.592" height="109.592" stroke="white" stroke-width="1.1536"/>
<rect x="1194.28" y="69.8146" width="109.592" height="109.592" stroke="white" stroke-width="1.1536"/>
<rect x="1303.87" y="69.8146" width="109.592" height="109.592" stroke="white" stroke-width="1.1536"/>
<rect x="1413.46" y="69.8146" width="109.592" height="109.592" stroke="white" stroke-width="1.1536"/>
<rect x="-11.2385" y="180.56" width="109.592" height="109.592" stroke="white" stroke-width="1.1536"/>
<rect x="98.3538" y="180.56" width="109.592" height="109.592" stroke="white" stroke-width="1.1536"/>
<rect x="207.946" y="180.56" width="109.592" height="109.592" stroke="white" stroke-width="1.1536"/>
<rect x="316.962" y="179.984" width="110.746" height="110.746" fill="white" fill-opacity="0.13"/>
<rect x="427.131" y="180.56" width="109.592" height="109.592" stroke="white" stroke-width="1.1536"/>
<rect x="536.723" y="180.56" width="109.592" height="109.592" stroke="white" stroke-width="1.1536"/>
<rect x="646.316" y="180.56" width="109.592" height="109.592" stroke="white" stroke-width="1.1536"/>
<rect x="755.908" y="180.56" width="109.592" height="109.592" stroke="white" stroke-width="1.1536"/>
<rect x="865.5" y="180.56" width="109.592" height="109.592" stroke="white" stroke-width="1.1536"/>
<rect x="975.092" y="180.56" width="109.592" height="109.592" stroke="white" stroke-width="1.1536"/>
<rect x="1084.11" y="179.984" width="110.746" height="110.746" fill="white" fill-opacity="0.13"/>
<rect x="1194.28" y="180.56" width="109.592" height="109.592" stroke="white" stroke-width="1.1536"/>
<rect x="1303.29" y="179.984" width="110.746" height="110.746" fill="white" fill-opacity="0.13"/>
<rect x="1413.46" y="180.56" width="109.592" height="109.592" stroke="white" stroke-width="1.1536"/>
<rect x="-11.2385" y="291.306" width="109.592" height="109.592" stroke="white" stroke-width="1.1536"/>
<rect x="98.3538" y="291.306" width="109.592" height="109.592" stroke="white" stroke-width="1.1536"/>
<rect x="207.369" y="290.729" width="110.746" height="110.746" fill="white" fill-opacity="0.13"/>
<rect x="317.538" y="291.306" width="109.592" height="109.592" stroke="white" stroke-width="1.1536"/>
<rect x="426.554" y="290.729" width="110.746" height="110.746" fill="white" fill-opacity="0.13"/>
<rect x="536.723" y="291.306" width="109.592" height="109.592" stroke="white" stroke-width="1.1536"/>
<rect x="646.316" y="291.306" width="109.592" height="109.592" stroke="white" stroke-width="1.1536"/>
<rect x="755.908" y="291.306" width="109.592" height="109.592" stroke="white" stroke-width="1.1536"/>
<rect x="865.5" y="291.306" width="109.592" height="109.592" stroke="white" stroke-width="1.1536"/>
<rect x="974.516" y="290.729" width="110.746" height="110.746" fill="white" fill-opacity="0.13"/>
<rect x="1084.68" y="291.306" width="109.592" height="109.592" stroke="white" stroke-width="1.1536"/>
<rect x="1193.7" y="290.729" width="110.746" height="110.746" fill="white" fill-opacity="0.13"/>
<rect x="1303.87" y="291.306" width="109.592" height="109.592" stroke="white" stroke-width="1.1536"/>
<rect x="1413.46" y="291.306" width="109.592" height="109.592" stroke="white" stroke-width="1.1536"/>
<rect x="-11.2385" y="402.052" width="109.592" height="109.592" stroke="white" stroke-width="1.1536"/>
<rect x="97.777" y="401.476" width="110.746" height="110.746" fill="white" fill-opacity="0.13"/>
<rect x="207.946" y="402.052" width="109.592" height="109.592" stroke="white" stroke-width="1.1536"/>
<rect x="316.962" y="401.476" width="110.746" height="110.746" fill="white" fill-opacity="0.13"/>
<rect x="427.131" y="402.052" width="109.592" height="109.592" stroke="white" stroke-width="1.1536"/>
<rect x="536.723" y="402.052" width="109.592" height="109.592" stroke="white" stroke-width="1.1536"/>
<rect x="646.316" y="402.052" width="109.592" height="109.592" stroke="white" stroke-width="1.1536"/>
<rect x="755.908" y="402.052" width="109.592" height="109.592" stroke="white" stroke-width="1.1536"/>
<rect x="865.5" y="402.052" width="109.592" height="109.592" stroke="white" stroke-width="1.1536"/>
<rect x="975.092" y="402.052" width="109.592" height="109.592" stroke="white" stroke-width="1.1536"/>
<rect x="1084.11" y="401.476" width="110.746" height="110.746" fill="white" fill-opacity="0.13"/>
<rect x="1194.28" y="402.052" width="109.592" height="109.592" stroke="white" stroke-width="1.1536"/>
<rect x="1303.87" y="402.052" width="109.592" height="109.592" stroke="white" stroke-width="1.1536"/>
<rect x="1413.46" y="402.052" width="109.592" height="109.592" stroke="white" stroke-width="1.1536"/>
<rect x="-11.2385" y="512.798" width="109.592" height="109.592" stroke="white" stroke-width="1.1536"/>
<rect x="98.3538" y="512.798" width="109.592" height="109.592" stroke="white" stroke-width="1.1536"/>
<rect x="207.946" y="512.798" width="109.592" height="109.592" stroke="white" stroke-width="1.1536"/>
<rect x="317.538" y="512.798" width="109.592" height="109.592" stroke="white" stroke-width="1.1536"/>
<rect x="427.131" y="512.798" width="109.592" height="109.592" stroke="white" stroke-width="1.1536"/>
<rect x="536.723" y="512.798" width="109.592" height="109.592" stroke="white" stroke-width="1.1536"/>
<rect x="646.316" y="512.798" width="109.592" height="109.592" stroke="white" stroke-width="1.1536"/>
<rect x="755.908" y="512.798" width="109.592" height="109.592" stroke="white" stroke-width="1.1536"/>
<rect x="865.5" y="512.798" width="109.592" height="109.592" stroke="white" stroke-width="1.1536"/>
<rect x="975.092" y="512.798" width="109.592" height="109.592" stroke="white" stroke-width="1.1536"/>
<rect x="1084.68" y="512.798" width="109.592" height="109.592" stroke="white" stroke-width="1.1536"/>
<rect x="1194.28" y="512.798" width="109.592" height="109.592" stroke="white" stroke-width="1.1536"/>
<rect x="1303.87" y="512.798" width="109.592" height="109.592" stroke="white" stroke-width="1.1536"/>
<rect x="1413.46" y="512.798" width="109.592" height="109.592" stroke="white" stroke-width="1.1536"/>
<rect x="-11.2385" y="623.544" width="109.592" height="109.592" stroke="white" stroke-width="1.1536"/>
<rect x="98.3538" y="623.544" width="109.592" height="109.592" stroke="white" stroke-width="1.1536"/>
<rect x="207.946" y="623.544" width="109.592" height="109.592" stroke="white" stroke-width="1.1536"/>
<rect x="317.538" y="623.544" width="109.592" height="109.592" stroke="white" stroke-width="1.1536"/>
<rect x="427.131" y="623.544" width="109.592" height="109.592" stroke="white" stroke-width="1.1536"/>
<rect x="536.723" y="623.544" width="109.592" height="109.592" stroke="white" stroke-width="1.1536"/>
<rect x="646.316" y="623.544" width="109.592" height="109.592" stroke="white" stroke-width="1.1536"/>
<rect x="755.908" y="623.544" width="109.592" height="109.592" stroke="white" stroke-width="1.1536"/>
<rect x="865.5" y="623.544" width="109.592" height="109.592" stroke="white" stroke-width="1.1536"/>
<rect x="974.516" y="622.967" width="110.746" height="110.746" fill="white" fill-opacity="0.13"/>
<rect x="1084.68" y="623.544" width="109.592" height="109.592" stroke="white" stroke-width="1.1536"/>
<rect x="1194.28" y="623.544" width="109.592" height="109.592" stroke="white" stroke-width="1.1536"/>
<rect x="1303.87" y="623.544" width="109.592" height="109.592" stroke="white" stroke-width="1.1536"/>
<rect x="1413.46" y="623.544" width="109.592" height="109.592" stroke="white" stroke-width="1.1536"/>
<rect x="-11.2385" y="734.29" width="109.592" height="109.592" stroke="white" stroke-width="1.1536"/>
<rect x="98.3538" y="734.29" width="109.592" height="109.592" stroke="white" stroke-width="1.1536"/>
<rect x="207.946" y="734.29" width="109.592" height="109.592" stroke="white" stroke-width="1.1536"/>
<rect x="317.538" y="734.29" width="109.592" height="109.592" stroke="white" stroke-width="1.1536"/>
<rect x="427.131" y="734.29" width="109.592" height="109.592" stroke="white" stroke-width="1.1536"/>
<rect x="536.723" y="734.29" width="109.592" height="109.592" stroke="white" stroke-width="1.1536"/>
<rect x="646.316" y="734.29" width="109.592" height="109.592" stroke="white" stroke-width="1.1536"/>
<rect x="755.908" y="734.29" width="109.592" height="109.592" stroke="white" stroke-width="1.1536"/>
<rect x="864.923" y="733.713" width="110.746" height="110.746" fill="white" fill-opacity="0.13"/>
<rect x="975.092" y="734.29" width="109.592" height="109.592" stroke="white" stroke-width="1.1536"/>
<rect x="1084.11" y="733.713" width="110.746" height="110.746" fill="white" fill-opacity="0.13"/>
<rect x="1194.28" y="734.29" width="109.592" height="109.592" stroke="white" stroke-width="1.1536"/>
<rect x="1303.29" y="733.713" width="110.746" height="110.746" fill="white" fill-opacity="0.13"/>
<rect x="1413.46" y="734.29" width="109.592" height="109.592" stroke="white" stroke-width="1.1536"/>
<rect x="-11.2385" y="845.036" width="109.592" height="109.592" stroke="white" stroke-width="1.1536"/>
<rect x="98.3538" y="845.036" width="109.592" height="109.592" stroke="white" stroke-width="1.1536"/>
<rect x="207.946" y="845.036" width="109.592" height="109.592" stroke="white" stroke-width="1.1536"/>
<rect x="317.538" y="845.036" width="109.592" height="109.592" stroke="white" stroke-width="1.1536"/>
<rect x="427.131" y="845.036" width="109.592" height="109.592" stroke="white" stroke-width="1.1536"/>
<rect x="536.723" y="845.036" width="109.592" height="109.592" stroke="white" stroke-width="1.1536"/>
<rect x="646.316" y="845.036" width="109.592" height="109.592" stroke="white" stroke-width="1.1536"/>
<rect x="755.331" y="844.459" width="110.746" height="110.746" fill="white" fill-opacity="0.13"/>
<rect x="865.5" y="845.036" width="109.592" height="109.592" stroke="white" stroke-width="1.1536"/>
<rect x="974.516" y="844.459" width="110.746" height="110.746" fill="white" fill-opacity="0.13"/>
<rect x="1084.68" y="845.036" width="109.592" height="109.592" stroke="white" stroke-width="1.1536"/>
<rect x="1193.7" y="844.459" width="110.746" height="110.746" fill="white" fill-opacity="0.13"/>
<rect x="1303.87" y="845.036" width="109.592" height="109.592" stroke="white" stroke-width="1.1536"/>
<rect x="1413.46" y="845.036" width="109.592" height="109.592" stroke="white" stroke-width="1.1536"/>
</g>
</mask>
<g mask="url(#mask0_9_13858)">
<g filter="url(#filter0_f_9_13858)">
<ellipse cx="394.692" cy="364.784" rx="264.661" ry="190.017" transform="rotate(34.13 394.692 364.784)" fill="#D9D9D9"/>
</g>
<g filter="url(#filter1_f_9_13858)">
<ellipse cx="1065.35" cy="811.591" rx="252.123" ry="183.841" transform="rotate(30.1452 1065.35 811.591)" fill="#D9D9D9"/>
</g>
<g filter="url(#filter2_f_9_13858)">
<ellipse cx="1140.4" cy="283.986" rx="220.175" ry="157.363" transform="rotate(-15 1140.4 283.986)" fill="#D9D9D9"/>
</g>
</g>
</g>
<defs>
<filter id="filter0_f_9_13858" x="94.9941" y="92.4722" width="599.395" height="544.624" filterUnits="userSpaceOnUse" color-interpolation-filters="sRGB">
<feFlood flood-opacity="0" result="BackgroundImageFix"/>
<feBlend mode="normal" in="SourceGraphic" in2="BackgroundImageFix" result="shape"/>
<feGaussianBlur stdDeviation="28" result="effect1_foregroundBlur_9_13858"/>
</filter>
<filter id="filter1_f_9_13858" x="772.52" y="552.348" width="585.655" height="518.488" filterUnits="userSpaceOnUse" color-interpolation-filters="sRGB">
<feFlood flood-opacity="0" result="BackgroundImageFix"/>
<feBlend mode="normal" in="SourceGraphic" in2="BackgroundImageFix" result="shape"/>
<feGaussianBlur stdDeviation="28" result="effect1_foregroundBlur_9_13858"/>
</filter>
<filter id="filter2_f_9_13858" x="803.823" y="1.6106" width="673.155" height="564.751" filterUnits="userSpaceOnUse" color-interpolation-filters="sRGB">
<feFlood flood-opacity="0" result="BackgroundImageFix"/>
<feBlend mode="normal" in="SourceGraphic" in2="BackgroundImageFix" result="shape"/>
<feGaussianBlur stdDeviation="60" result="effect1_foregroundBlur_9_13858"/>
</filter>
<clipPath id="clip0_9_13858">
<rect width="1440" height="932" fill="white"/>
</clipPath>
</defs>
</svg>
