<svg xmlns="http://www.w3.org/2000/svg" version="1.1" xmlns:xlink="http://www.w3.org/1999/xlink" xmlns:svgjs="http://svgjs.dev/svgjs" viewBox="0 0 800 800" opacity="0.6"><g stroke-width="2" stroke="hsl(204, 87%, 52%)" fill="none" stroke-linecap="round"><path d="M378.3 102.87C387.66 106.81 396.96 112.13 406.18 118.17 415.42 123.91 424.59 129.17 433.69 133.52 442.83 136.27 451.92 137.81 460.97 138.27 470.09 137.44 479.2 136.24 488.31 135.13 497.53 134.07 506.78 134.02 516.07 135.29 525.51 137.69 535.01 141.79 544.58 147.53 554.31 154.51 564.11 162.83 573.94 172.2 583.92 182.14 593.9 192.56 603.83 203.13 613.82 213.5 623.67 223.62 633.29 233.33 642.82 242.4 651.99 250.97 660.68 259.07 669.06 266.48 676.8 273.57 683.75 280.44 690.19 286.81 695.68 293.19 700.13 299.69 703.87 305.91 706.47 312.43 707.84 319.31 708.47 326.07 707.89 333.29 706.1 340.99 703.7 348.65 700.24 356.83 695.81 365.53 691.09 374.21 685.65 383.43 679.65 393.2 673.81 402.98 667.86 413.09 661.95 423.53 656.6 434.01 651.5 444.84 646.75 456.01 642.75 467.24 639.16 478.82 635.97 490.68 633.56 502.55 631.47 514.62 629.65 526.76 628.45 538.68 627.36 550.42 626.29 561.72 625.6 572.39 624.74 582.21 623.62 590.87 619.04 606.79 606.41 610.08 599.78 606.56 594.92 604.93 589.41 604.17 583.3 604.94 576.98 608.22 570.08 613.93 562.67 622.24 555.09 633.22 547.04 646.21 538.58 660.44 530.02 675.07 521.09 688.81 511.85 700.41 502.56 709.07 493 713.71 483.22 713.78 473.42 709.89 463.43 702.04 453.28 691.25 443.13 679.59 432.84 668.01 422.44 658.16 412.04 651.99 401.77 649.83 391.66 651.74 381.54 657.75 371.57 666.35 361.75 676.16 351.92 686.4 342.23 694.99 332.7 700.78 323.14 703.51 313.73 702.15 304.48 696.8 295.19 688.16 286.04 676.57 277.07 662.99 268.06 648.47 259.21 633.83 250.55 619.94 241.86 607.5 233.37 596.87 225.11 588.23 216.84 581.82 208.82 577.24 201.07 574.1 193.36 572.52 185.95 571.56 178.89 570.77 171.9 570.39 165.29 569.43 159.09 567.63 153.02 565.44 147.38 562.08 142.23 557.55 137.23 552.38 132.73 546.09 128.77 538.8 124.97 530.99 121.72 522.41 119.04 513.23 116.52 503.75 114.56 493.88 113.18 483.77 111.94 473.55 111.27 463.23 111.17 452.9 111.16 442.55 111.7 432.25 112.8 422.05 113.93 411.85 115.55 401.98 117.62 392.42 119.66 382.83 122.11 373.48 124.93 364.33 127.67 355.07 130.75 345.89 134.15 336.75 137.4 327.38 140.96 317.91 144.79 308.29 148.45 298.34 152.38 288.15 156.56 277.69 160.57 266.94 164.83 255.95 169.34 244.83 173.7 233.64 178.32 222.53 183.2 211.71 187.96 201.29 193 191.54 198.31 182.73 203.55 174.83 209.09 168.2 214.92 162.99 220.71 158.87 226.82 156.12 233.23 154.66 239.63 153.75 246.35 153.55 253.36 153.71 260.39 153.32 267.71 152.49 275.32 150.89 282.94 147.83 290.84 143.66 299 138.43 307.16 131.98 315.57 125.05 324.2 118.17 332.83 111.52 341.68 106.05 350.7 102.3 359.73 100.22 368.93 100.41 378.29 102.87" stroke-dasharray="1 8" transform="rotate(0, 400, 400)" opacity="0.78"></path><path d="M379.69 113.55C388.72 117.42 397.72 122.64 406.68 128.59 415.65 134.31 424.6 139.67 433.5 144.23 442.44 147.33 451.36 149.27 460.27 150.15 469.24 149.71 478.23 148.75 487.22 147.69 496.32 146.45 505.46 145.96 514.63 146.53 523.93 148.01 533.28 151.02 542.68 155.57 552.2 161.33 561.77 168.5 571.33 176.84 580.99 185.94 590.61 195.76 600.14 205.99 609.67 216.3 619.03 226.6 628.11 236.7 637.06 246.39 645.62 255.7 653.68 264.6 661.42 272.92 668.51 280.88 674.83 288.56 680.66 295.73 685.58 302.78 689.5 309.81 692.79 316.51 694.99 323.35 696.06 330.43 696.47 337.33 695.77 344.57 693.95 352.2 691.6 359.76 688.27 367.78 684.04 376.28 679.57 384.76 674.43 393.75 668.75 403.29 663.22 412.83 657.55 422.71 651.9 432.9 646.75 443.11 641.79 453.64 637.11 464.43 633.11 475.22 629.45 486.24 626.14 497.39 623.54 508.44 621.22 519.48 619.14 530.34 617.65 540.86 616.27 550.94 614.92 560.34 613.96 569.03 612.87 576.71 611.57 583.12 606.83 593.4 594.88 593.25 588.78 591.02 584.34 590.83 579.29 591.86 573.68 594.61 567.89 599.79 561.55 607.22 554.7 616.89 547.71 628.69 540.26 641.92 532.39 655.81 524.41 669.55 516.07 682 507.4 692.07 498.67 699.21 489.65 702.5 480.39 701.58 471.11 697.14 461.6 689.23 451.92 678.78 442.22 667.7 432.36 656.79 422.36 647.48 412.36 641.54 402.46 639.23 392.69 640.62 382.9 645.84 373.24 653.54 363.71 662.58 354.17 672.32 344.75 680.87 335.47 687.15 326.17 690.91 317 691.06 307.98 687.52 298.93 680.85 290.02 671.15 281.27 659.18 272.5 645.84 263.89 631.83 255.46 617.96 247.02 604.92 238.78 593.16 230.76 582.99 222.75 574.71 214.99 568.14 207.5 563.09 200.05 559.67 192.91 557.19 186.11 555.26 179.4 554.1 173.05 552.81 167.11 551.11 161.29 549.39 155.91 546.85 150.99 543.39 146.22 539.54 141.95 534.69 138.19 528.89 134.59 522.68 131.52 515.63 129 507.88 126.64 499.85 124.83 491.28 123.58 482.28 122.46 473.16 121.89 463.76 121.87 454.15 121.95 444.52 122.56 434.76 123.7 424.91 124.88 415.06 126.52 405.36 128.61 395.81 130.65 386.23 133.1 376.74 135.9 367.32 138.61 357.79 141.66 348.24 145.01 338.63 148.22 328.83 151.72 318.89 155.48 308.76 159.08 298.43 162.94 287.89 167.02 277.18 170.95 266.35 175.12 255.45 179.51 244.59 183.76 233.89 188.26 223.49 192.99 213.59 197.61 204.27 202.48 195.78 207.62 188.35 212.66 181.85 217.99 176.6 223.59 172.69 229.14 169.68 234.98 167.85 241.11 167.02 247.22 166.47 253.62 166.34 260.31 166.31 266.99 165.52 273.96 164.16 281.21 161.94 288.45 158.3 295.97 153.63 303.74 148.02 311.51 141.38 319.53 134.44 327.78 127.69 336.02 121.29 344.48 116.11 353.14 112.64 361.8 110.77 370.65 111.08 379.68 113.55" stroke-dasharray="6 6" transform="rotate(4.04, 400, 400)" opacity="0.20"></path><path d="M381.72 124.23C390.43 128.03 399.15 133.12 407.84 138.97 416.55 144.66 425.26 150.08 433.95 154.83 442.68 158.25 451.42 160.59 460.16 161.9 468.95 161.88 477.78 161.24 486.62 160.34 495.55 159.06 504.52 158.27 513.52 158.31 522.62 159 531.77 161.02 540.93 164.45 550.19 168.98 559.45 174.91 568.68 182.08 577.97 190.13 587.18 199.07 596.25 208.64 605.29 218.53 614.12 228.65 622.63 238.8 630.99 248.77 638.93 258.53 646.36 268 653.47 277.05 659.93 285.77 665.64 294.2 670.88 302.19 675.27 309.98 678.7 317.65 681.56 324.99 683.42 332.34 684.22 339.79 684.44 347.05 683.63 354.52 681.8 362.27 679.51 369.93 676.31 377.94 672.3 386.35 668.07 394.73 663.21 403.55 657.85 412.84 652.62 422.13 647.24 431.68 641.85 441.46 636.89 451.25 632.08 461.24 627.49 471.37 623.51 481.46 619.81 491.6 616.41 501.7 613.64 511.61 611.12 521.31 608.82 530.62 607.07 539.52 605.42 547.78 603.81 555.22 595.85 575.22 583.29 577.35 577.62 577.03 573.52 578.5 568.88 581.37 563.7 586.02 558.39 592.88 552.55 601.72 546.22 612.39 539.77 624.62 532.87 637.75 525.55 650.99 518.14 663.64 510.36 674.7 502.23 683.25 494.05 688.92 485.57 690.98 476.82 689.19 468.05 684.32 459.03 676.41 449.81 666.34 440.58 655.85 431.16 645.59 421.58 636.81 412 631.09 402.48 628.65 393.06 629.58 383.64 634.03 374.3 640.87 365.08 649.12 355.85 658.27 346.73 666.64 337.72 673.23 328.71 677.81 319.81 679.25 311.04 677.37 302.26 672.59 293.61 664.8 285.12 654.59 276.61 642.73 268.26 629.73 260.1 616.36 251.93 603.24 243.96 590.87 236.21 579.63 228.48 569.86 221 561.57 213.79 554.7 206.63 549.4 199.78 545.21 193.26 541.82 186.83 539.4 180.76 537.25 175.09 535.05 166.98 531.96 153.19 522.72 147.62 516.02 144.23 511.02 141.35 505.21 139 498.67 136.8 491.91 135.13 484.52 134 476.58 133 468.53 132.53 460.04 132.6 451.19 132.75 442.31 133.42 433.13 134.6 423.69 135.82 414.25 137.48 404.79 139.57 395.32 141.62 385.84 144.05 376.3 146.83 366.72 149.52 357.06 152.53 347.3 155.83 337.41 159 327.42 162.44 317.26 166.13 306.96 169.67 296.57 173.45 286.06 177.45 275.5 181.3 264.99 185.38 254.57 189.67 244.39 193.82 234.54 198.2 225.16 202.81 216.47 207.29 208.44 212.02 201.34 216.98 195.34 221.86 190.2 226.99 186.24 232.39 183.47 237.71 181.37 243.32 180.21 249.19 179.79 255.03 179.36 261.14 179.1 267.53 178.71 273.9 177.43 280.54 175.46 287.45 172.62 294.35 168.42 301.52 163.3 308.93 157.39 316.34 150.64 323.99 143.74 331.88 137.17 339.75 131.05 347.86 126.18 356.17 122.99 364.48 121.34 372.99 121.76 381.71 124.23" stroke-dasharray="4 4" transform="rotate(8.08, 400, 400)" opacity="0.78"></path><path d="M384.32 134.91C392.73 138.63 401.15 143.59 409.58 149.31 418.03 154.94 426.49 160.41 434.96 165.31 443.46 169.01 451.98 171.74 460.52 173.48 469.11 173.92 477.73 173.66 486.38 173.02 495.1 171.83 503.85 170.9 512.63 170.56 521.48 170.63 530.36 171.81 539.23 174.2 548.16 177.56 557.07 182.25 565.92 188.18 574.79 195.03 583.54 202.88 592.12 211.52 600.63 220.67 608.9 230.26 616.83 240.09 624.59 249.97 631.91 259.83 638.71 269.55 645.2 279.04 651.05 288.29 656.19 297.29 660.88 305.95 664.75 314.4 667.74 322.68 670.21 330.67 671.75 338.58 672.32 346.48 672.37 354.19 671.47 362 669.65 369.96 667.42 377.82 664.38 385.92 660.57 394.29 656.58 402.62 652.01 411.29 646.95 420.28 642.01 429.28 636.92 438.42 631.78 447.65 627.03 456.87 622.37 466.15 617.89 475.4 613.95 484.58 610.24 493.65 606.76 502.48 603.87 511.09 601.18 519.31 598.69 526.98 595.75 537.5 590.69 553.45 588.24 558.4 582.94 562.13 571.69 562.93 566.37 564.91 562.56 568.11 558.25 572.77 553.46 579.1 548.55 587.36 543.16 597.25 537.31 608.51 531.35 620.82 524.95 633.51 518.15 645.86 511.27 657.28 504.01 666.88 496.41 673.93 488.76 678.22 480.79 679.16 472.55 676.62 464.28 671.42 455.75 663.58 447 653.92 438.24 644.02 429.28 634.39 420.12 626.13 410.97 620.65 401.86 618.1 392.81 618.6 383.76 622.34 374.78 628.34 365.89 635.77 357 644.29 348.19 652.36 339.49 659.07 330.78 664.26 322.18 666.77 313.7 666.36 305.22 663.34 296.85 657.43 288.64 649.06 280.43 638.86 272.37 627.2 264.48 614.73 256.62 602.03 248.94 589.56 241.48 577.77 234.06 566.98 226.88 557.35 219.97 548.94 213.12 541.91 206.57 536 200.34 531.01 194.21 527.09 188.43 523.68 183.04 520.53 175.35 516.54 162.32 507.34 157.08 501.4 153.9 497.13 151.21 492.16 149.03 486.51 146.99 480.71 145.46 474.27 144.46 467.23 143.58 460.1 143.2 452.45 143.34 444.32 143.57 436.15 144.29 427.57 145.5 418.59 146.75 409.61 148.43 400.47 150.51 391.2 152.56 381.93 154.97 372.51 157.72 362.95 160.38 353.37 163.35 343.63 166.59 333.76 169.72 323.85 173.11 313.82 176.73 303.7 180.21 293.61 183.92 283.51 187.85 273.5 191.62 263.69 195.61 254.12 199.81 244.95 203.87 236.23 208.14 228.11 212.63 220.78 216.99 214.14 221.58 208.45 226.4 203.82 233.6 198.5 249.1 193.42 257.44 192.78 263.03 192.26 268.88 191.7 275 190.82 281.08 188.96 287.43 186.36 294.03 182.9 300.61 178.19 307.45 172.68 314.53 166.54 321.6 159.75 328.91 152.96 336.46 146.61 343.99 140.8 351.76 136.26 359.74 133.35 367.71 131.92 375.91 132.44 384.31 134.91" stroke-dasharray="9 10" transform="rotate(12.12, 400, 400)" opacity="0.17"></path><path d="M387.42 145.59C395.52 149.22 403.66 154.04 411.82 159.61 419.99 165.17 428.19 170.64 436.42 175.66 444.67 179.62 452.95 182.71 461.26 184.87 469.61 185.78 478 185.96 486.4 185.65 494.86 184.66 503.35 183.75 511.85 183.19 520.4 182.82 528.95 183.32 537.48 184.84 546.04 187.13 554.55 190.65 562.96 195.33 571.37 200.9 579.63 207.53 587.68 215.05 595.65 223.18 603.34 231.93 610.68 241.11 617.83 250.52 624.54 260.11 630.73 269.73 636.62 279.29 641.89 288.74 646.47 298.03 650.65 307.12 654.05 316.02 656.63 324.75 658.74 333.25 660 341.64 660.36 349.93 660.27 358.07 659.31 366.21 657.51 374.37 655.36 382.45 652.46 390.64 648.85 398.97 645.1 407.27 640.8 415.75 636.05 424.4 631.4 433.06 626.58 441.7 621.7 450.29 617.15 458.84 612.67 467.3 608.31 475.57 604.43 483.75 600.72 491.65 597.21 499.17 594.21 506.47 591.39 513.24 588.73 519.38 582.61 533.59 574.43 545.09 571.41 546.01 568.25 546.86 560.18 550.43 555.12 554.88 551.55 559.73 547.52 565.98 543.05 573.72 538.5 583.02 533.49 593.56 528.06 605.03 522.54 617.06 516.61 629.04 510.28 640.3 503.89 650.38 497.12 658.51 490.02 664.1 482.87 667.12 475.4 667.06 467.65 663.9 459.87 658.46 451.83 650.76 443.55 641.54 435.26 632.22 426.75 623.21 418.03 615.45 409.32 610.2 400.62 607.58 391.96 607.68 383.31 610.76 374.7 615.95 366.17 622.58 357.63 630.4 349.17 638.06 340.79 644.75 332.42 650.33 324.14 653.7 315.97 654.54 307.81 653.1 299.77 648.98 291.86 642.44 283.97 634.03 276.22 623.93 268.65 612.69 261.11 600.84 253.75 588.77 246.61 576.93 239.51 565.64 232.65 555.15 226.06 545.6 219.54 537.14 213.3 529.7 207.38 523.19 201.57 517.69 196.09 512.87 190.99 508.51 183.73 503.01 171.47 492.41 166.57 486.5 162.35 480.17 156.53 464.65 154.95 455.38 154.18 448.96 153.89 441.98 154.11 434.48 154.4 426.95 155.16 418.93 156.4 410.45 157.67 401.96 159.36 393.23 161.43 384.29 163.47 375.37 165.86 366.24 168.56 356.94 171.2 347.66 174.12 338.22 177.31 328.67 180.39 319.16 183.72 309.58 187.27 300.01 190.69 290.57 194.33 281.24 198.18 272.12 201.88 263.31 205.79 254.86 209.9 246.94 213.87 239.51 218.05 232.77 222.42 226.85 228.91 219.38 242.8 209.94 250.23 207.74 257.78 206.43 273.98 204.48 282.65 202.5 288.47 200.02 294.55 196.79 300.86 192.75 307.15 187.6 313.69 181.78 320.46 175.49 327.22 168.73 334.22 162.11 341.44 156.02 348.66 150.56 356.1 146.35 363.76 143.73 371.42 142.51 379.31 143.14 387.41 145.58" stroke-dasharray="0 4" transform="rotate(16.16, 400, 400)" opacity="0.51"></path><path d="M390.91 156.27C398.71 159.8 406.55 164.47 414.43 169.88 422.32 175.34 430.25 180.78 438.21 185.88 446.19 190.06 454.21 193.48 462.25 196.05 470.32 197.43 478.43 198.08 486.55 198.17 494.71 197.5 502.89 196.73 511.06 196.12 519.27 195.49 527.45 195.5 535.58 196.31 543.73 197.7 551.8 200.15 559.74 203.67 567.65 207.98 575.38 213.33 582.89 219.6 590.29 226.55 597.4 234.22 604.15 242.46 610.7 251.08 616.82 260.04 622.42 269.18 627.73 278.44 632.45 287.73 636.51 296.97 640.2 306.15 643.17 315.2 645.38 324.12 647.17 332.91 648.16 341.57 648.35 350.1 648.14 358.52 647.14 366.87 645.37 375.15 643.31 383.38 640.55 391.59 637.16 399.81 633.64 408.02 629.61 416.26 625.15 424.53 620.78 432.79 616.24 440.89 611.61 448.77 607.28 456.63 602.97 464.24 598.74 471.52 594.93 478.71 591.25 485.5 587.73 491.8 583.2 500.69 575.41 514.89 572 519.99 566.16 526.43 556.78 532.48 552.94 535.23 550.31 538.21 547.31 542.06 543.95 546.98 540.55 553.3 536.76 560.86 532.56 569.64 528.31 579.6 523.64 590.4 518.58 601.7 513.45 613.15 507.93 624.18 502.04 634.21 496.09 642.88 489.78 649.56 483.15 653.78 476.47 655.63 469.48 654.7 462.21 651.04 454.91 645.45 447.34 637.95 439.52 629.18 431.7 620.45 423.64 612.05 415.38 604.77 407.11 599.76 398.84 597.08 390.59 596.84 382.35 599.29 374.13 603.72 365.97 609.54 357.81 616.63 349.71 623.79 341.69 630.31 333.68 636.09 325.75 640.09 317.92 641.96 310.11 641.9 302.4 639.42 294.83 634.64 287.29 628.04 279.88 619.65 272.65 609.89 265.45 599.24 258.43 588 251.63 576.59 244.88 565.33 238.35 554.48 232.09 544.26 225.91 534.81 220.01 526.18 214.41 518.36 208.92 511.44 203.76 505.22 198.96 499.57 194.28 494.6 189.98 489.95 186.09 485.45 180.66 479.26 172.19 466.25 169.2 458.95 167.49 453.97 166.24 448.51 165.47 442.55 164.81 436.57 164.61 430.08 164.89 423.09 165.24 416.08 166.04 408.57 167.3 400.59 168.59 392.61 170.28 384.36 172.33 375.89 174.35 367.43 176.71 358.78 179.37 349.97 181.96 341.21 184.84 332.32 187.97 323.39 190.99 314.56 194.26 305.73 197.74 297.02 201.11 288.5 204.68 280.2 208.44 272.23 212.08 264.6 215.91 257.43 219.93 250.86 223.82 244.77 227.9 239.39 232.17 234.81 238.5 229.13 252.01 222.33 259.2 220.79 266.5 219.57 282.11 216.58 290.44 213.68 296.03 210.57 301.85 206.74 307.91 202.17 313.93 196.66 320.19 190.61 326.67 184.26 333.14 177.6 339.84 171.2 346.76 165.43 353.67 160.32 360.81 156.46 368.17 154.12 375.52 153.11 383.1 153.83 390.9 156.26" stroke-dasharray="6 10" transform="rotate(20.200000000000003, 400, 400)" opacity="0.80"></path><path d="M394.68 166.95C402.18 170.37 409.73 174.88 417.31 180.12 424.91 185.45 432.55 190.84 440.21 195.98 447.9 200.34 455.62 204.04 463.36 206.99 471.13 208.83 478.93 209.96 486.72 210.5 494.55 210.22 502.37 209.72 510.17 209.21 517.98 208.5 525.76 208.21 533.46 208.52 541.15 209.2 548.74 210.75 556.18 213.23 563.57 216.37 570.77 220.48 577.71 225.49 584.55 231.16 591.08 237.61 597.23 244.71 603.2 252.28 608.73 260.31 613.76 268.67 618.53 277.27 622.72 286.04 626.3 294.88 629.55 303.77 632.12 312.65 633.99 321.44 635.49 330.21 636.26 338.87 636.3 347.4 635.99 355.88 634.97 364.25 633.25 372.49 631.27 380.71 628.67 388.83 625.48 396.85 622.19 404.87 618.42 412.8 614.25 420.63 610.15 428.46 605.88 435.99 601.51 443.19 597.39 450.37 593.26 457.18 589.18 463.57 585.46 469.88 581.84 475.72 578.33 481.04 573.72 488.52 565.57 500.26 561.91 504.52 555.54 510.95 545.62 520.28 541.74 525.1 539.12 529.53 536.19 534.84 532.94 541.15 529.68 548.64 526.07 557.15 522.1 566.57 518.09 576.79 513.72 587.49 508.98 598.29 504.19 608.89 499.04 618.79 493.54 627.48 488 634.74 482.12 640.01 475.92 642.96 469.69 643.77 463.15 642.1 456.33 638.05 449.49 632.4 442.38 625.15 435.02 616.87 427.65 608.72 420.05 600.9 412.24 594.09 404.42 589.32 396.58 586.61 388.75 586.05 380.93 587.94 373.12 591.63 365.35 596.68 357.6 603.01 349.88 609.6 342.24 615.82 334.61 621.63 327.05 626.04 319.58 628.71 312.14 629.81 304.8 628.76 297.6 625.63 290.42 620.79 283.37 614.14 276.5 606.01 269.67 596.82 263.01 586.76 256.56 576.2 250.18 565.45 244.01 554.76 238.1 544.36 232.27 534.41 226.71 525.03 221.45 516.29 216.29 508.24 211.45 500.83 206.96 494 202.58 487.8 198.57 482.02 194.95 476.53 189.9 468.99 182.08 454.33 179.35 446.71 177.8 441.63 176.68 436.21 176.03 430.42 175.47 424.64 175.36 418.44 175.69 411.82 176.1 405.19 176.93 398.13 178.21 390.64 179.5 383.15 181.18 375.43 183.2 367.53 185.2 359.65 187.53 351.61 190.14 343.48 192.69 335.41 195.51 327.29 198.57 319.21 201.54 311.25 204.74 303.4 208.15 295.75 211.44 288.33 214.94 281.21 218.63 274.5 222.19 268.12 225.95 262.27 229.88 257.02 235.68 250.12 248.03 240.37 254.57 237.46 261.17 235.37 275.22 232.59 282.69 231.01 287.68 229.24 292.89 227.03 298.3 224.25 303.67 220.54 309.27 216.16 315.08 211.16 320.85 205.37 326.85 199.2 333.07 192.86 339.26 186.38 345.68 180.26 352.32 174.83 358.94 170.1 365.78 166.59 372.84 164.54 379.9 163.73 387.18 164.54 394.67 166.94" stroke-dasharray="8 10" transform="rotate(24.24, 400, 400)" opacity="0.60"></path><path d="M398.62 177.62C405.81 180.94 413.06 185.28 420.33 190.33 427.62 195.5 434.95 200.81 442.3 205.95 449.67 210.44 457.07 214.38 464.48 217.67 471.91 219.96 479.35 221.57 486.79 222.58 494.23 222.76 501.67 222.62 509.06 222.34 516.45 221.72 523.78 221.33 531.01 221.34 538.23 221.52 545.31 222.38 552.23 224 559.09 226.12 565.73 229.1 572.11 232.92 578.38 237.31 584.33 242.5 589.91 248.37 595.31 254.72 600.29 261.63 604.78 268.97 609.02 276.62 612.73 284.56 615.86 292.68 618.7 300.96 620.91 309.31 622.47 317.67 623.72 326.08 624.3 334.44 624.21 342.7 623.83 350.97 622.8 359.13 621.14 367.14 619.26 375.15 616.81 383.02 613.82 390.73 610.75 398.45 607.24 406 603.35 413.36 599.52 420.72 595.51 427.7 591.39 434.27 587.49 440.83 583.55 446.96 579.63 452.63 574.24 460.82 564.35 474.57 559.85 480.11 552.28 489.12 541.83 500.64 538.29 504.95 536.01 508.58 533.54 512.71 530.85 517.5 528.22 523.22 525.33 529.76 522.16 537.16 519 545.47 515.53 554.54 511.75 564.2 507.95 574.3 503.82 584.54 499.36 594.56 494.87 604.11 490.05 612.75 484.9 620.06 479.73 625.92 474.23 629.87 468.44 631.66 462.62 631.57 456.51 629.29 450.12 624.96 443.72 619.33 437.05 612.37 430.14 604.58 423.23 597.01 416.08 589.76 408.71 583.41 401.35 578.88 393.95 576.16 386.55 575.33 379.16 576.7 371.77 579.7 364.42 583.99 357.07 589.57 349.76 595.52 342.51 601.33 335.28 607.01 328.12 611.64 321.04 614.88 313.99 616.89 307.04 617.07 300.22 615.39 293.42 612.19 286.77 607.26 280.27 600.81 273.82 593.23 267.54 584.59 261.47 575.22 255.46 565.4 249.66 555.31 244.12 545.23 238.65 535.28 233.44 525.64 228.52 516.42 223.7 507.67 219.19 499.42 215.01 491.68 210.94 484.45 207.21 477.65 203.86 471.22 200.63 465.19 197.77 459.39 195.32 453.71 192.02 445.56 187.66 429.13 186.62 420.52 186.17 414.75 186.13 408.68 186.52 402.31 186.97 395.94 187.83 389.24 189.11 382.22 190.41 375.2 192.07 368.03 194.06 360.75 196.03 353.5 198.31 346.18 200.86 338.85 203.36 331.58 206.12 324.36 209.11 317.26 212.02 310.29 215.15 303.51 218.48 297.01 221.71 290.73 225.13 284.82 228.73 279.36 234.06 271.87 245.41 260.15 251.43 256.03 257.47 252.81 270.26 248.71 277.04 247.24 283.89 245.23 298.45 239.02 306.18 234.18 311.35 229.91 316.73 225.07 322.31 219.73 327.85 213.76 333.61 207.56 339.57 201.33 345.51 195.08 351.66 189.29 358.02 184.24 364.36 179.9 370.92 176.75 377.69 174.98 384.45 174.37 391.42 175.26 398.61 177.62" stroke-dasharray="6 10" transform="rotate(28.28, 400, 400)" opacity="0.99"></path><path d="M402.61 188.3C409.49 191.5 416.41 195.66 423.37 200.5 430.33 205.51 437.33 210.69 444.34 215.8 451.37 220.37 458.42 224.51 465.47 228.09 472.53 230.78 479.6 232.85 486.63 234.34 493.68 235.02 500.69 235.31 507.64 235.37 514.58 234.98 521.44 234.67 528.18 234.57 534.89 234.48 541.46 234.87 547.84 235.85 554.16 237.16 560.25 239.19 566.07 241.95 571.77 245.18 577.16 249.15 582.19 253.79 587.04 258.89 591.49 264.57 595.47 270.75 599.23 277.27 602.49 284.16 605.21 291.33 607.67 298.71 609.56 306.27 610.85 313.91 611.87 321.67 612.29 329.45 612.1 337.19 611.66 344.98 610.64 352.69 609.04 360.27 607.27 367.88 604.97 375.34 602.19 382.62 599.33 389.92 596.07 397.02 592.44 403.89 588.88 410.77 585.13 417.24 581.26 423.29 577.58 429.33 573.83 434.94 570.08 440.1 564.87 447.59 555.08 460.35 550.54 465.71 546.48 470.81 538.83 480.1 535.13 484.78 531.64 490.22 524.31 503.73 520.32 512.38 517.67 519.14 514.79 526.58 511.68 534.68 508.6 543.42 505.24 552.63 501.61 562.14 497.98 571.78 494.06 581.27 489.84 590.29 485.61 598.65 481.07 605.95 476.25 611.88 468.83 617.77 452.54 617.67 443.72 611.79 437.73 606.26 431.49 599.63 425.02 592.35 418.53 585.33 411.83 578.63 404.91 572.73 398 568.45 391.05 565.73 384.08 564.67 377.13 565.57 370.17 567.93 363.24 571.49 356.32 576.31 349.43 581.6 342.6 586.92 335.78 592.33 329.03 596.99 322.36 600.57 315.72 603.26 309.17 604.42 302.75 603.99 296.36 602.25 290.1 598.91 284 594.11 277.95 588.19 272.07 581.13 266.38 573.16 260.76 564.58 255.34 555.49 250.17 546.14 245.07 536.68 240.22 527.27 235.65 518.05 231.18 509.05 226.99 500.4 223.12 492.12 219.36 484.21 215.93 476.68 212.84 469.5 209.87 462.67 207.26 456.1 205.02 449.75 202.9 443.64 201.15 437.64 199.8 431.69 198.56 425.87 197.7 420.01 197.26 414.06 196.89 408.17 196.92 402.12 197.36 395.91 197.85 389.71 198.73 383.31 200.01 376.71 201.31 370.11 202.94 363.48 204.89 356.85 206.83 350.24 209.05 343.66 211.54 337.17 213.98 330.74 216.67 324.44 219.58 318.34 222.42 312.36 225.47 306.65 228.72 301.27 233.54 293.66 243.93 280.95 249.47 276 255.02 271.84 266.78 266 272.99 263.99 279.23 261.94 292.46 257.23 299.46 253.91 304.12 250.89 308.97 247.4 313.99 243.4 318.98 238.67 324.15 233.47 329.51 227.9 334.84 221.87 340.36 215.73 346.08 209.69 351.77 203.75 357.66 198.33 363.75 193.68 369.83 189.74 376.1 186.94 382.58 185.45 389.05 185.02 395.72 185.98 402.6 188.3" stroke-dasharray="6 5" transform="rotate(32.32, 400, 400)" opacity="0.35"></path><path d="M406.51 198.98C413.07 202.05 419.66 206.02 426.28 210.64 432.9 215.46 439.55 220.49 446.21 225.52 452.87 230.13 459.55 234.4 466.21 238.22 472.88 241.27 479.54 243.76 486.15 245.73 492.77 246.91 499.33 247.69 505.81 248.17 512.28 248.13 518.65 248.04 524.89 248.03 534.11 247.95 551.52 249.98 559.56 252.54 567.14 256.23 580.37 267.33 585.85 274.56 589.16 279.87 592 285.61 594.35 291.69 596.47 298 598.07 304.57 599.12 311.31 599.95 318.19 600.23 325.17 599.96 332.17 599.49 339.26 598.48 346.32 596.96 353.31 595.29 360.33 593.15 367.25 590.57 374.01 587.93 380.79 584.91 387.4 581.54 393.79 578.24 400.19 574.74 406.21 571.12 411.85 567.65 417.48 564.11 422.73 560.54 427.6 555.51 434.74 545.91 447.34 541.36 452.99 537.23 458.62 529.32 469.85 525.46 475.9 523.05 480.41 520.56 485.25 517.98 490.48 515.52 496.29 512.92 502.61 510.16 509.47 507.49 516.91 504.62 524.87 501.55 533.27 498.52 542.04 495.26 551.03 491.76 560.04 488.27 568.93 484.52 577.44 480.51 585.29 476.5 592.37 472.23 598.33 467.69 602.92 460.72 607.02 445.48 604.68 437.23 598.55 431.64 593.17 425.81 586.92 419.76 580.15 413.7 573.68 407.43 567.52 400.96 562.06 394.49 558.01 387.98 555.32 381.46 554.07 374.95 554.54 368.43 556.32 361.93 559.2 355.45 563.27 348.99 567.87 342.58 572.64 336.19 577.65 329.87 582.17 323.62 585.91 317.4 589.03 311.28 590.93 305.27 591.5 299.3 591.01 293.45 589.09 287.76 585.83 282.12 581.52 276.64 576.06 271.35 569.62 266.12 562.47 261.1 554.66 256.3 546.39 251.57 537.82 247.09 529.06 242.87 520.28 238.74 511.53 234.89 502.92 231.33 494.54 227.87 486.36 224.73 478.47 221.91 470.87 219.2 463.51 216.82 456.42 214.8 449.57 212.87 442.93 211.31 436.45 210.11 430.12 209.01 423.92 208.28 417.78 207.93 411.67 207.65 405.63 207.75 399.56 208.22 393.46 208.75 387.37 209.64 381.22 210.91 375.01 212.19 368.8 213.8 362.67 215.7 356.65 217.59 350.65 219.76 344.78 222.18 339.08 225.86 330.72 234.24 315.36 238.87 308.57 243.57 302.33 253.68 292.1 259.08 288.15 264.49 284.71 275.94 279.43 281.98 277.24 288.06 274.7 300.89 268.37 307.65 264.09 312.16 260.47 316.84 256.41 321.68 251.93 326.48 246.84 331.46 241.4 336.61 235.71 341.73 229.72 347.03 223.74 352.5 217.97 357.96 212.39 363.6 207.38 369.42 203.15 375.23 199.62 381.22 197.17 387.41 195.95 393.58 195.69 399.95 196.71 406.5 198.98" stroke-dasharray="4 8" transform="rotate(36.36, 400, 400)" opacity="0.40"></path><path d="M410.21 209.66C416.43 212.59 422.69 216.36 428.95 220.76 435.22 225.36 441.5 230.22 447.78 235.13 460.36 243.84 472.91 251.19 485.25 256.69 497.57 259.35 509.6 260.68 521.1 261.47 532.41 261.23 543.01 262.04 552.59 264.49 561.74 267.74 569.61 273.21 575.93 280.7 581.55 289.3 585.41 299.52 587.31 310.83 588.44 322.74 587.64 335.19 584.9 347.7 583.35 354.02 581.36 360.29 578.97 366.48 576.53 372.68 573.75 378.76 570.64 384.7 567.59 390.64 564.34 396.27 560.96 401.61 557.72 406.95 554.38 411.99 550.99 416.75 544.8 426.34 538.53 435.03 532.32 443.11 526.99 451.84 521.6 460.71 516.11 470.28 511.28 481.42 506.09 494.04 500.43 508.32 495.11 524.14 489.08 540.92 482.27 557.53 475.54 572.9 467.89 585.37 459.34 593.16 450.75 596.31 441.22 593.54 430.8 585.27 425.58 580.11 420.14 574.25 414.5 567.99 408.86 562.07 403.01 556.42 396.98 551.38 390.95 547.58 384.88 544.93 378.8 543.52 372.73 543.62 366.65 544.87 360.59 547.11 348.51 554.75 336.55 563.47 324.9 571.02 313.36 577.12 302.19 578.89 291.6 575.95 281.19 569.4 271.44 558.77 262.54 545.32 253.91 530.19 246.22 514.07 239.64 497.96 233.42 482.03 228.37 466.83 224.65 452.57 221.28 438.84 219.24 425.81 218.64 413.36 218.45 407.22 218.6 401.16 219.11 395.17 219.66 389.2 220.56 383.27 221.81 377.4 223.86 368.69 229.38 352.28 232.77 344.66 237.33 334.73 242.77 325.94 248.93 318.52 254.81 311.34 261.39 305.6 268.54 301.26 275.37 296.78 282.81 293.13 290.79 289.85 298.48 285.21 306.78 279.85 315.65 273.28 324.3 264.45 333.61 254.26 343.52 243.22 353.31 231.49 363.79 220.82 374.91 212.66 380.45 209.55 386.16 207.45 392.05 206.47 397.92 206.38 403.98 207.45 410.2 209.66" stroke-dasharray="2 8" transform="rotate(40.400000000000006, 400, 400)" opacity="0.29"></path><path d="M413.59 220.34C425.35 226.45 437.18 235.03 448.94 244.63 460.72 253.31 472.41 261.01 483.85 267.19 495.24 270.83 506.28 273.14 516.76 274.68 527.04 274.9 536.59 275.65 545.14 277.49 553.3 279.63 560.24 283.55 565.73 289.24 570.62 295.74 573.9 303.86 575.42 313.18 576.3 323.04 575.45 333.69 572.86 344.69 569.9 355.86 565.48 367.1 559.74 378.11 554.18 389.13 547.98 399.37 541.44 408.88 535.54 418.52 529.48 427.74 523.39 436.81 518.06 446.54 512.62 456.75 507.07 467.81 502.11 480.11 496.82 493.67 491.14 508.37 485.78 523.84 479.82 539.52 473.2 554.27 466.69 567.31 459.39 577.21 451.3 582.62 443.21 583.98 434.27 580.25 424.56 571.95 414.81 561.99 404.29 550.83 393.09 540.7 381.89 534.82 370.57 533.08 359.33 535.23 348.13 541.47 337.06 549.01 326.29 556.02 315.62 562.39 305.32 565.41 295.57 564.54 286 560.7 277.06 553.03 268.92 542.42 261.04 529.92 254.04 515.88 248.08 501.27 242.44 486.36 237.89 471.7 234.58 457.68 231.59 443.93 229.83 430.85 229.4 418.49 229.21 406.29 230.29 394.6 232.71 383.49 235.2 372.38 238.8 362.32 243.31 353.39 247.72 344.49 252.96 336.79 258.89 330.38 264.59 323.98 270.94 318.77 277.84 314.57 284.47 309.91 291.68 305.67 299.38 301.4 306.84 295.69 314.86 289.14 323.4 281.46 331.75 271.92 340.68 261.39 350.17 250.47 359.55 239.33 369.54 229.51 380.12 222.24 390.65 217.52 401.82 216.79 413.58 220.33" stroke-dasharray="5 10" transform="rotate(44.44, 400, 400)" opacity="0.69"></path><path d="M416.54 231.02C427.59 236.79 438.66 244.86 449.61 254.02 460.56 262.57 471.37 270.48 481.87 277.19 492.32 281.72 502.38 285.01 511.84 287.42 521.12 288.36 529.67 289.43 537.24 291.13 544.45 292.69 550.54 295.59 555.27 299.94 559.5 304.78 562.28 311.11 563.47 318.67 564.15 326.64 563.28 335.57 560.85 345.12 558.13 354.8 554.09 364.87 548.84 375.11 543.74 385.34 538 395.25 531.88 404.86 526.3 414.63 520.48 424.39 514.58 434.34 509.3 444.86 503.88 456.03 498.33 468.02 493.3 480.86 487.96 494.61 482.29 508.94 476.93 523.39 471.05 537.43 464.62 549.99 458.31 560.6 451.33 568.03 443.67 571.32 436.03 571.19 427.66 566.77 418.61 558.64 409.54 549.39 399.78 539.26 389.42 530.02 379.06 524.45 368.61 522.34 358.25 523.56 347.93 528.48 337.74 534.79 327.86 541.04 318.07 547.29 308.64 551.08 299.74 551.76 291 550.18 282.86 545.17 275.48 537.31 268.33 527.59 262.01 516.01 256.66 503.41 251.58 490.18 247.53 476.74 244.61 463.59 241.97 450.46 240.47 437.83 240.2 425.89 240.13 414.03 241.25 402.79 243.61 392.28 246.04 381.77 249.5 372.44 253.82 364.27 258.05 356.08 263.07 349.03 268.75 343.1 274.23 337 280.35 331.79 286.98 327.24 293.38 322.04 300.33 316.93 307.74 311.54 314.94 304.77 322.66 297.17 330.85 288.62 338.88 278.66 347.44 268.1 356.49 257.54 365.44 247.15 374.95 238.26 384.97 231.9 394.95 227.9 405.49 227.54 416.54 231.02" stroke-dasharray="9 3" transform="rotate(48.48, 400, 400)" opacity="0.38"></path><path d="M418.97 241.7C429.29 247.11 439.57 254.66 449.68 263.32 459.79 271.63 469.7 279.6 479.27 286.69 488.78 291.97 497.86 296.17 506.34 299.48 514.65 301.32 522.23 303 528.88 304.94 537.87 307.63 549.38 318.54 551.47 327.18 551.98 333.59 551.11 341.03 548.86 349.3 546.39 357.65 542.72 366.65 537.94 376.17 533.28 385.69 528 395.29 522.32 404.96 517.07 414.76 511.54 424.88 505.86 435.38 500.7 446.31 495.37 457.91 489.88 470.16 484.84 482.86 479.51 496.07 473.9 509.33 468.57 522.24 462.79 534.25 456.56 544.45 450.45 552.67 443.78 557.83 436.54 559.3 429.33 558 421.49 553.15 413.07 545.33 404.64 536.85 395.62 527.71 386.08 519.34 376.54 514.1 366.95 511.7 357.46 512.11 348.01 515.79 338.71 520.86 329.7 526.19 320.78 532 312.22 536.1 304.16 537.83 296.24 537.96 288.89 535.2 282.26 529.82 275.82 522.8 270.15 513.79 265.39 503.48 260.86 492.37 257.28 480.66 254.74 468.88 252.43 456.93 251.17 445.22 251.04 434.03 251.09 422.86 252.23 412.24 254.51 402.34 256.86 392.43 260.16 383.65 264.27 375.96 268.31 368.2 273.1 361.42 278.51 355.52 283.76 349.34 289.6 343.76 295.94 338.53 302.09 332.58 308.75 326.5 315.84 320.03 322.76 312.35 330.15 303.95 337.97 294.86 345.65 284.78 353.81 274.47 362.4 264.51 370.91 255 379.91 247.1 389.35 241.63 398.76 238.34 408.65 238.31 418.97 241.7" stroke-dasharray="8 10" transform="rotate(52.52, 400, 400)" opacity="0.60"></path><path d="M420.81 252.38C430.37 257.42 439.84 264.42 449.1 272.53 458.36 280.5 467.37 288.38 476.01 295.67 484.59 301.53 492.73 306.51 500.25 310.68 507.63 313.47 514.3 315.93 520.1 318.4 527.92 321.4 537.76 330.92 539.43 338.16 539.81 343.43 538.97 349.72 536.91 356.94 534.67 364.19 531.36 372.28 527.04 381.13 522.82 389.99 517.99 399.23 512.75 408.78 507.85 418.44 502.64 428.58 497.23 439.18 492.25 450.03 487.06 461.44 481.7 473.26 476.72 485.19 471.47 497.23 465.96 508.9 460.7 519.89 455.07 529.67 449.06 537.5 443.17 543.48 436.8 546.66 429.96 546.65 423.17 544.48 415.85 539.44 408.04 532.06 400.23 524.36 391.93 516.2 383.18 508.66 374.43 503.76 365.68 501.16 357.05 500.87 348.45 503.42 340.02 507.29 331.88 511.61 323.82 516.73 316.1 520.73 308.86 523.02 301.75 524.32 295.17 523.28 289.26 519.98 283.52 515.36 278.49 508.8 274.29 500.8 270.29 491.99 267.15 482.31 264.96 472.22 262.97 461.86 261.93 451.44 261.93 441.29 262.07 431.1 263.22 421.28 265.41 412.01 267.66 402.73 270.8 394.39 274.68 386.95 278.52 379.42 283.05 372.63 288.16 366.47 293.15 359.99 298.7 353.84 304.71 347.81 310.58 341.1 316.92 334.13 323.66 326.76 330.26 318.44 337.3 309.57 344.72 300.28 352.02 290.42 359.75 280.62 367.86 271.45 375.9 262.93 384.37 256.05 393.21 251.47 402.02 248.83 411.24 249.09 420.81 252.38" stroke-dasharray="6 10" transform="rotate(56.56, 400, 400)" opacity="0.65"></path><path d="M421.99 263.05C430.78 267.72 439.43 274.14 447.84 281.66 456.23 289.19 464.35 296.84 472.08 304.16 479.75 310.4 486.96 315.98 493.59 320.88 502.99 326.23 517.68 334.8 522.57 339.38 526.03 344.21 527.25 358.03 524.98 367.21 522.98 373.64 520.02 380.97 516.14 389.18 512.34 397.4 507.96 406.16 503.16 415.35 498.63 424.6 493.77 434.38 488.68 444.56 483.93 454.84 478.94 465.49 473.78 476.27 468.91 486.9 463.8 497.32 458.46 507.04 453.33 515.93 447.88 523.46 442.12 529.07 436.46 533.04 430.42 534.58 424 533.43 417.61 530.68 410.8 525.66 403.59 518.83 396.39 511.94 388.77 504.71 380.8 497.98 372.83 493.44 364.9 490.71 357.11 489.84 349.35 491.38 341.76 494.11 334.47 497.39 327.24 501.63 320.35 505.22 313.92 507.65 304.67 509.65 289.25 503.11 283.37 495.04 279.87 488.46 277.15 480.85 275.29 472.58 273.59 464.01 272.76 455.11 272.86 446.18 273.09 437.19 274.22 428.31 276.31 419.71 278.46 411.11 281.41 403.17 285.05 395.87 288.65 388.48 292.91 381.56 297.7 375.02 302.41 368.18 307.63 361.44 313.3 354.68 318.84 347.35 324.83 339.74 331.19 331.78 337.44 323.16 344.08 314.19 351.07 305.06 357.96 295.71 365.24 286.67 372.83 278.45 380.37 271 388.27 265.15 396.48 261.42 404.67 259.39 413.2 259.9 421.99 263.05" stroke-dasharray="6 10" transform="rotate(60.599999999999994, 400, 400)" opacity="0.12"></path><path d="M422.48 273.73C430.48 278 438.3 283.85 445.85 290.72 453.39 297.73 460.64 305.01 467.48 312.18 474.27 318.58 480.61 324.54 486.38 329.99 494.56 336.5 507.18 347.18 511.31 352.34 514.23 357.4 515.12 370.46 513.08 378.87 511.31 384.72 508.69 391.43 505.23 399.01 501.85 406.59 497.9 414.73 493.56 423.29 489.41 431.87 484.92 440.89 480.19 450.19 475.71 459.45 470.99 468.87 466.08 478.16 461.41 487.15 456.5 495.67 451.39 503.3 446.45 510.1 441.23 515.51 435.75 519.14 430.38 521.44 424.68 521.68 418.68 519.74 412.72 516.68 406.41 511.86 399.79 505.67 393.19 499.6 386.25 493.26 379.03 487.31 371.82 483.13 364.68 480.34 357.71 479.02 350.75 479.7 343.99 481.38 337.52 483.64 331.1 486.9 325 489.85 319.34 492.05 311.2 494.54 297.73 491.64 292.64 486.19 289.61 481.57 287.28 475.86 285.73 469.36 284.3 462.57 283.65 455.24 283.84 447.61 284.13 439.91 285.24 432.06 287.21 424.19 289.23 416.32 291.99 408.8 295.37 401.64 298.73 394.4 302.69 387.38 307.14 380.52 311.53 373.41 316.41 366.27 321.69 359.01 326.88 351.35 332.48 343.42 338.42 335.26 344.27 326.72 350.49 318.03 357 309.42 363.44 300.84 370.22 292.76 377.26 285.6 384.27 279.25 391.58 274.41 399.13 271.49 406.67 270.02 414.48 270.74 422.48 273.73" stroke-dasharray="6 0" transform="rotate(64.64, 400, 400)" opacity="0.37"></path><path d="M422.27 284.41C429.46 288.28 436.45 293.53 443.16 299.72 449.85 306.13 456.23 312.92 462.22 319.76 468.17 326.1 473.67 332.21 478.66 337.97 485.71 345.35 496.46 357.97 499.92 363.86 502.37 369.45 503.03 382.5 501.22 390.43 499.68 395.88 497.38 402.06 494.33 408.99 491.34 415.92 487.84 423.29 483.94 430.97 480.19 438.65 476.1 446.61 471.75 454.66 467.6 462.61 463.19 470.49 458.59 478.04 454.18 485.23 449.54 491.79 444.71 497.39 437.55 504.03 422.23 508.43 414.01 505.68 408.5 502.54 402.71 498.08 396.68 492.58 390.66 487.32 384.39 481.85 377.92 476.63 371.44 472.83 365.08 470.07 358.89 468.4 349.74 468.74 332.77 473.75 325.18 476.55 312.27 478.53 298.54 469.47 296.28 462.45 295.1 457.26 294.61 451.4 294.87 445.03 295.2 438.6 296.27 431.79 298.12 424.7 300 417.62 302.54 410.59 305.65 403.67 308.74 396.7 312.38 389.73 316.48 382.76 320.53 375.63 325.02 368.36 329.89 360.96 334.69 353.31 339.87 345.48 345.35 337.54 350.77 329.45 356.51 321.39 362.51 313.58 368.46 305.99 374.7 299.01 381.16 292.98 387.59 287.74 394.27 283.87 401.14 281.68 408 280.71 415.07 281.6 422.27 284.41" stroke-dasharray="7 7" transform="rotate(68.68, 400, 400)" opacity="0.24"></path><path d="M421.35 295.09C434.12 302.69 445.97 314.14 456.36 326.96 466.6 338.69 475.13 349.9 481.38 360.15 487.24 368.48 490.63 376.92 491.14 386.09 491.3 394.64 488.75 405.02 483.43 417.5 478.29 429.97 471.34 443.45 463.35 456.8 455.93 469.61 447.48 481.04 438.4 489.21 429.76 495.01 420.21 495.94 410.02 491.36 399.95 485.13 389 475.86 377.5 465.95 366 460.42 355.05 457.89 345.17 457.8 335.39 461.13 326.86 463.65 320.11 463.76 313.62 463.56 309.07 459.62 306.93 452.26 305.08 444.31 305.66 433.71 309.02 421.18 312.49 408.64 318.26 395.44 325.71 381.98 333.03 368.18 341.97 353.63 351.97 339.04 361.81 324.52 372.81 311.06 384.5 300.68 396.13 293.1 408.58 290.85 421.35 295.09" stroke-dasharray="4 4" transform="rotate(72.72, 400, 400)" opacity="0.14"></path><path d="M419.77 305.77C430.9 312.4 441.1 322.4 449.93 333.85 458.65 344.85 465.83 355.86 471.01 366.24 475.92 375.32 478.72 384.34 479.1 393.58 479.23 402.31 477.08 412.14 472.53 423.14 468.11 434.14 462.05 445.32 454.98 455.74 448.31 465.64 440.66 473.77 432.43 478.82 424.52 482.19 415.83 481.62 406.65 476.89 397.59 471.39 387.85 463.64 377.78 455.27 367.72 450.22 358.26 447.15 349.82 445.83 337.84 447.96 321.26 446.76 317.71 439.64 316.24 433.64 316.87 425.04 319.92 414.18 323.05 403.32 328.21 391.34 334.84 378.86 341.39 366.29 349.38 353.12 358.3 340.27 367.13 327.9 376.95 316.86 387.32 308.76 397.66 303.05 408.64 301.77 419.77 305.77" stroke-dasharray="10 2" transform="rotate(76.76, 400, 400)" opacity="0.62"></path><path d="M417.57 316.45C427.06 322.11 435.66 330.6 443.02 340.5 450.3 350.37 456.23 360.62 460.46 370.56 464.51 379.73 466.8 388.82 467.08 397.8 467.22 406.44 465.44 415.53 461.63 424.99 457.92 434.44 452.73 443.36 446.63 451.07 440.79 458.38 434.03 463.79 426.75 466.5 419.69 468.18 411.97 466.8 403.89 462.4 395.9 457.79 387.42 451.5 378.77 444.59 370.11 440.09 362.09 436.75 355.03 434.55 345.01 434.49 331.38 431.67 328.6 425.79 327.46 421.06 328.12 414.04 330.82 404.86 333.59 395.68 338.1 385.29 343.86 374.4 349.6 363.57 356.57 352.39 364.35 341.77 372.08 331.81 380.64 323.24 389.63 317.31 398.61 313.25 408.07 312.76 417.57 316.45" stroke-dasharray="1 1" transform="rotate(80.80000000000001, 400, 400)" opacity="0.40"></path><path d="M414.81 327.13C422.67 331.82 429.72 338.78 435.69 347 441.62 355.41 446.39 364.42 449.78 373.35 453.05 381.93 454.89 390.47 455.11 398.73 455.25 406.8 453.83 414.9 450.73 422.75 447.69 430.6 443.4 437.44 438.28 442.88 433.32 448.07 427.56 451.46 421.32 452.65 415.22 453.32 408.58 451.72 401.68 447.98 394.84 444.35 387.65 439.45 380.42 433.91 373.18 430.03 366.55 426.67 360.79 423.95 347.17 419.75 339.07 405.16 341.72 394.75 344.1 387.21 347.92 378.68 352.8 369.8 357.66 361.06 363.57 352.22 370.14 344.08 376.69 336.57 383.93 330.38 391.49 326.37 399.04 323.73 406.94 323.84 414.81 327.13" stroke-dasharray="10 10" transform="rotate(84.84, 400, 400)" opacity="0.64"></path><path d="M411.59 337.8C424.07 345.98 433.73 360.08 439.02 374.99 444.08 389.54 444.68 404.33 439.83 416.79 435.13 429.24 426.38 436.76 416.09 437.81 406.13 438.12 394.33 432.57 382.68 423.23 371.03 418.03 361.61 413.03 355.94 407.84 350.4 404.57 348.82 397.38 352.62 385.49 356.55 373.6 365.07 359.51 375.7 347.68 386.31 337.76 399.1 333.25 411.59 337.8" stroke-dasharray="2 4" transform="rotate(88.88, 400, 400)" opacity="0.76"></path><path d="M408 348.48C417.29 354.46 424.38 364.77 428.23 375.96 431.98 387.28 432.48 398.85 428.93 408.07 425.47 417.29 418.86 422.26 411.02 422.58 403.34 422.84 394.28 419.15 385.49 412.55 376.69 408.26 369.73 403.22 365.65 397.9 361.62 393.81 360.57 387.43 363.52 378.61 366.55 369.79 373.02 360.28 381.05 352.95 389.09 346.8 398.71 344.59 408 348.48" stroke-dasharray="2 10" transform="rotate(92.92, 400, 400)" opacity="0.18"></path><path d="M404.17 359.16C416.44 367.63 422.65 385.91 418.03 398.04 413.55 410.15 400.58 410.92 388.75 401.88 376.92 396.83 370.4 386.93 374.42 375.23 378.59 363.52 391.88 354.44 404.17 359.16" stroke-dasharray="2 2" transform="rotate(96.96, 400, 400)" opacity="0.80"></path></g></svg>